<svg viewBox="0 0 40 40" fill="none" xmlns="http://www.w3.org/2000/svg">
<path fill-rule="evenodd" clip-rule="evenodd" d="M31.38 27.9C31.38 27.9 32.37 28.56 33.32 28.56C34.29 28.56 35.13 27.87 35.13 27.87V24.51C35.13 24.51 34.28 25.11 33.33 25.11C32.38 25.11 31.38 24.46 31.38 24.46L21.51 18.65L22.43 22.63L31.38 27.9ZM4.75 17.53C4.75 17.53 3.8 16.87 2.8 16.87C1.81 16.87 1 17.57 1 17.57V20.92C1 20.92 1.81 20.32 2.8 20.32C3.8 20.32 4.75 20.98 4.75 20.98L12.9 25.78L13.6 22.74L4.75 17.54V17.53ZM31.38 23.51C31.38 23.51 32.37 24.17 33.32 24.17C34.29 24.17 35.13 23.47 35.13 23.47V20.12C35.13 20.12 34.28 20.72 33.33 20.72C32.38 20.72 31.38 20.07 31.38 20.07L20.35 13.57L21.26 17.55L31.38 23.51ZM4.75 13.14C4.75 13.14 3.8 12.48 2.8 12.48C1.81 12.48 1 13.17 1 13.17V16.53C1 16.53 1.81 15.93 2.8 15.93C3.8 15.93 4.75 16.58 4.75 16.58L13.79 21.9L14.49 18.87L4.75 13.14ZM31.38 19.12C31.38 19.12 32.37 19.77 33.32 19.77C34.29 19.77 35.13 19.09 35.13 19.09V15.73C35.13 15.73 34.28 16.33 33.33 16.33C32.38 16.33 31.38 15.68 31.38 15.68L19.18 8.48L20.1 12.48L31.38 19.12ZM4.75 8.75C4.75 8.75 3.8 8.09 2.8 8.09C1.81 8.09 1 8.78 1 8.78V12.13C1 12.13 1.81 11.53 2.8 11.53C3.8 11.53 4.75 12.19 4.75 12.19L14.67 18.03L15.37 15L4.75 8.75ZM18.93 7.39L31.38 14.72C31.38 14.72 32.37 15.38 33.32 15.38C34.29 15.38 35.13 14.69 35.13 14.69V11.33C35.13 11.33 34.28 11.94 33.33 11.94C32.38 11.94 31.38 11.28 31.38 11.28L21.75 5.61L21.09 3.07C21.09 2.96 21.19 2.91 21.22 2.9L22.85 2.39C23.07 2.39 23.19 2.58 23.19 2.74L23.29 2.92C23.34 2.95 23.6 2.87 23.6 2.82V1.82C23.61 1.15 23.08 0.56 22.37 0.56H20.73C20.73 0.56 20.5 0 19.8 0H16.7C15.9 0 15.7 0.78 15.7 0.78L13.54 9.54L4.75 4.36C4.75 4.36 3.8 3.7 2.8 3.7C1.81 3.7 1 4.38 1 4.38V7.74C1 7.74 1.81 7.14 2.8 7.14C3.8 7.14 4.75 7.8 4.75 7.8L15.56 14.16L18.02 3.43L18.93 7.39ZM16.97 36.83C16.97 38.65 15.48 39.98 13.42 39.98C11.25 39.98 10.53 39.61 10.53 39.61L10.35 37.59C10.35 37.59 11.55 38.39 13.32 38.39C13.82 38.39 14.92 38.05 14.92 37.05C14.92 36.1 14.05 35.8 13.84 35.69C13.41 35.46 12.89 35.23 12.47 35.02C11.67 34.62 10.49 33.87 10.49 32.28C10.49 29.98 12.56 29.14 14.19 29.14C15.51 29.14 16.67 29.72 16.67 29.72V31.6C16.3 31.39 15.69 30.71 14.19 30.71C13.17 30.71 12.48 31.25 12.48 32.01C12.48 32.71 13.06 33.18 13.62 33.44C14.18 33.7 14.55 33.87 15.2 34.19C16.01 34.59 16.97 35.42 16.97 36.83ZM7.27 35.96C7.27 36.8 6.99 38.38 5.07 38.35C3.33 38.3 3 36.7 3 35.68V29.34H1V35.78C1 39.4 3.22 40 5.07 40C7.82 40 9.09 38.2 9.09 35.74V29.34H7.27V35.96ZM35.13 39.76H32.95L32.32 37.94H28.6L27.97 39.77H24.25L23.62 37.94H19.9L19.27 39.77H17.3L20.9 30.15L20.55 29.34H22.73L26.23 39.17L29.6 30.15L29.26 29.34H31.43L35.13 39.77V39.76ZM23.13 36.48L21.83 32.37L20.38 36.47H23.13V36.48ZM31.83 36.48L30.53 32.37L29.09 36.47H31.83V36.48ZM35.65 29.82C35.138 30.1193 34.7635 30.607 34.6065 31.1788C34.4495 31.7507 34.5226 32.3613 34.81 32.88C35.1109 33.3903 35.5994 33.7627 36.1711 33.9178C36.7428 34.0728 37.3525 33.9983 37.87 33.71C38.3829 33.409 38.7572 32.9187 38.9125 32.3446C39.0677 31.7705 38.9914 31.1584 38.7 30.64C38.4989 30.3034 38.2151 30.0239 37.8756 29.8279C37.536 29.6318 37.152 29.5259 36.76 29.52C36.38 29.52 36.01 29.62 35.66 29.82H35.65ZM37.68 30.14C38.1096 30.3892 38.4239 30.7974 38.5549 31.2765C38.6859 31.7555 38.6231 32.2669 38.38 32.7C38.1309 33.127 37.7245 33.4394 37.2478 33.5702C36.7711 33.7011 36.2622 33.64 35.83 33.4C35.6131 33.2804 35.4221 33.1189 35.2681 32.9249C35.1141 32.7308 35.0002 32.5081 34.933 32.2697C34.8658 32.0313 34.8466 31.7819 34.8766 31.536C34.9066 31.2901 34.9851 31.0526 35.1077 30.8373C35.2302 30.622 35.3943 30.4332 35.5905 30.2819C35.7866 30.1306 36.0108 30.0197 36.2501 29.9558C36.4894 29.8918 36.7391 29.8761 36.9846 29.9094C37.23 29.9428 37.4664 30.0245 37.68 30.15V30.14ZM36.16 33.01V31.98H36.39C36.5004 31.9749 36.6095 32.0066 36.7 32.07C36.8 32.14 36.94 32.33 37.11 32.63L37.33 33.01H37.8L37.5 32.53C37.4002 32.3615 37.2828 32.2039 37.15 32.06C37.0916 32.0051 37.0239 31.961 36.95 31.93C37.15 31.91 37.32 31.84 37.45 31.71C37.5537 31.604 37.6174 31.4653 37.6301 31.3175C37.6429 31.1698 37.604 31.0222 37.52 30.9C37.449 30.7893 37.3436 30.705 37.22 30.66C37.0177 30.6082 36.8085 30.588 36.6 30.6H35.77V33H36.17L36.16 33.01ZM36.16 30.92H36.61C36.8 30.92 36.93 30.94 37 30.96C37.07 30.99 37.12 31.03 37.16 31.09C37.2 31.15 37.22 31.21 37.22 31.29C37.22 31.39 37.18 31.49 37.1 31.55C37.02 31.62 36.86 31.65 36.64 31.65H36.16V30.92Z" fill="#12395B"></path>
</svg>
